<svg xmlns="http://www.w3.org/2000/svg" xmlns:xlink="http://www.w3.org/1999/xlink" viewBox="0 0 26 25"><g><defs><linearGradient id="idss3421331260_1g-197605173" x1="0" x2="1" y1="0.49410405227502524" y2="0.5058959477249748"><stop offset="0" stop-color="rgb(71,52,255)" stop-opacity="1"></stop><stop offset="1" stop-color="rgba(71,52,255,0.3)" stop-opacity="0.3"></stop></linearGradient></defs><path d="M 25.088 0.93 C 23.981 -0.177 22.187 -0.177 21.081 0.93 L 11.674 10.336 C 11.671 10.34 11.668 10.343 11.664 10.347 C 11.249 10.761 10.99 11.273 10.886 11.809 C 10.831 12.096 10.82 12.39 10.853 12.679 C 10.925 13.291 11.195 13.884 11.664 14.354 C 11.668 14.357 11.671 14.361 11.675 14.364 L 21.081 23.77 C 22.187 24.877 23.981 24.877 25.088 23.77 C 26.194 22.664 26.194 20.87 25.088 19.763 C 20.994 15.669 20.994 9.031 25.088 4.937 C 26.194 3.831 26.194 2.037 25.088 0.93 Z" fill="url(#idss3421331260_1g-197605173)"></path></g><g><defs><linearGradient id="idss3421331260_2g-1982055459" x1="1" x2="0" y1="0.4974874371859295" y2="0.5025125628140704"><stop offset="0" stop-color="rgb(255,72,20)" stop-opacity="1"></stop><stop offset="1" stop-color="rgba(255,72,20,0.25)" stop-opacity="0.25"></stop></linearGradient></defs><path d="M 1.53 23.77 C 2.636 24.877 4.43 24.877 5.537 23.77 L 14.954 14.354 C 15.368 13.939 15.628 13.427 15.732 12.891 C 15.854 12.258 15.759 11.59 15.447 11.009 C 15.319 10.771 15.154 10.547 14.954 10.347 L 5.537 0.93 C 4.43 -0.177 2.636 -0.177 1.53 0.93 C 0.423 2.037 0.423 3.831 1.53 4.937 C 5.624 9.031 5.624 15.669 1.53 19.763 C 0.423 20.87 0.423 22.664 1.53 23.77 Z" fill="url(#idss3421331260_2g-1982055459)"></path></g></svg>